<svg width="33" height="33" viewBox="0 0 33 33" fill="none" xmlns="http://www.w3.org/2000/svg">
<path fill-rule="evenodd" clip-rule="evenodd" d="M3.25018 1.38188C3.25018 1.17097 3.42842 1 3.64829 1H32.3116C32.5315 1 32.7097 1.17097 32.7097 1.38188V29.0042C32.7097 29.2151 32.5315 29.3861 32.3116 29.3861C32.0918 29.3861 31.9135 29.2151 31.9135 29.0042V1.76375H3.64829C3.42842 1.76375 3.25018 1.59278 3.25018 1.38188Z" fill="white" stroke="white" stroke-width="0.5" stroke-linecap="round" stroke-linejoin="round"/>
<path d="M3.66797 29.562L3.79297 29.562L3.79297 29.437L3.79297 5.67809L5.41886 7.30398C5.62192 7.50704 5.95114 7.50704 6.1542 7.30398C6.35725 7.10092 6.35726 6.7717 6.1542 6.56865L3.64068 4.05512C3.43762 3.85207 3.1084 3.85207 2.90534 4.05512L0.391825 6.56865C0.188767 6.7717 0.188768 7.10092 0.391824 7.30398C0.594882 7.50704 0.924103 7.50704 1.12716 7.30398L2.75305 5.67809L2.75305 29.437L2.75305 29.562L2.87805 29.562L3.66797 29.562Z" fill="white" stroke="white" stroke-width="0.25"/>
<path d="M2.75208 29.832V29.957H2.87708L26.7604 29.957L25.1263 31.5827C24.9221 31.7858 24.9221 32.1154 25.1263 32.3185C25.3301 32.5212 25.6602 32.5212 25.8641 32.3185L28.3907 29.8049C28.5949 29.6018 28.5949 29.2723 28.3907 29.0691L25.8641 26.5556C25.6602 26.3529 25.3301 26.3529 25.1263 26.5556C24.9221 26.7587 24.9221 27.0883 25.1263 27.2914L26.7604 28.9171L2.87708 28.9171H2.75208V29.0421V29.832Z" fill="white" stroke="white" stroke-width="0.25"/>
<path fill-rule="evenodd" clip-rule="evenodd" d="M14.1625 1.11568C14.3167 1.26992 14.3167 1.52 14.1625 1.67424L9.42296 6.41378C9.26872 6.56802 9.01864 6.56802 8.8644 6.41378C8.71016 6.25953 8.71016 6.00946 8.8644 5.85522L13.6039 1.11568C13.7582 0.96144 14.0083 0.96144 14.1625 1.11568Z" fill="white" stroke="white" stroke-width="0.5" stroke-linecap="round" stroke-linejoin="round"/>
<path fill-rule="evenodd" clip-rule="evenodd" d="M32.4624 19.9423C32.6167 20.0966 32.6167 20.3467 32.4624 20.5009L28.1178 24.8455C27.9636 24.9997 27.7135 24.9997 27.5593 24.8455C27.405 24.6912 27.405 24.4412 27.5593 24.2869L31.9039 19.9423C32.0581 19.7881 32.3082 19.7881 32.4624 19.9423Z" fill="white" stroke="white" stroke-width="0.5" stroke-linecap="round" stroke-linejoin="round"/>
<path fill-rule="evenodd" clip-rule="evenodd" d="M20.0851 1.11391C20.2403 1.26716 20.2419 1.51724 20.0886 1.67246L9.81963 12.0731C9.66637 12.2283 9.4163 12.2299 9.26108 12.0767C9.10586 11.9234 9.10427 11.6733 9.25752 11.5181L19.5265 1.11747C19.6798 0.962245 19.9298 0.960652 20.0851 1.11391Z" fill="white" stroke="white" stroke-width="0.5" stroke-linecap="round" stroke-linejoin="round"/>
<path fill-rule="evenodd" clip-rule="evenodd" d="M32.594 13.3588C32.7482 13.5131 32.7482 13.7632 32.594 13.9174L22.5883 23.9231C22.434 24.0773 22.184 24.0773 22.0297 23.9231C21.8755 23.7688 21.8755 23.5188 22.0297 23.3645L32.0354 13.3588C32.1896 13.2046 32.4397 13.2046 32.594 13.3588Z" fill="white" stroke="white" stroke-width="0.5" stroke-linecap="round" stroke-linejoin="round"/>
<path fill-rule="evenodd" clip-rule="evenodd" d="M26.4085 1.24905C26.5615 1.40453 26.5595 1.65459 26.404 1.80759L9.94731 18.001C9.79183 18.154 9.54176 18.152 9.38877 17.9965C9.23577 17.841 9.23779 17.591 9.39327 17.438L25.85 1.24454C26.0055 1.09155 26.2555 1.09357 26.4085 1.24905Z" fill="white" stroke="white" stroke-width="0.5" stroke-linecap="round" stroke-linejoin="round"/>
<path fill-rule="evenodd" clip-rule="evenodd" d="M32.5941 7.17135C32.7483 7.32559 32.7483 7.57566 32.5941 7.72991L16.0057 24.3183C15.8515 24.4725 15.6014 24.4725 15.4472 24.3183C15.2929 24.164 15.2929 23.914 15.4472 23.7597L32.0355 7.17135C32.1898 7.0171 32.4399 7.0171 32.5941 7.17135Z" fill="white" stroke="white" stroke-width="0.5" stroke-linecap="round" stroke-linejoin="round"/>
<path fill-rule="evenodd" clip-rule="evenodd" d="M32.3308 1.24679C32.485 1.40103 32.485 1.6511 32.3308 1.80534L9.68633 24.4498C9.53208 24.604 9.28201 24.604 9.12777 24.4498C8.97352 24.2956 8.97352 24.0455 9.12777 23.8912L31.7722 1.24679C31.9265 1.09254 32.1765 1.09254 32.3308 1.24679Z" fill="white" stroke="white" stroke-width="0.5" stroke-linecap="round" stroke-linejoin="round"/>
</svg>
