<svg width="34" height="32" viewBox="0 0 34 32" fill="none" xmlns="http://www.w3.org/2000/svg">
<path d="M24.6002 2.19966C24.3374 0.946405 23.1963 0 21.8314 0C21.5194 0 21.2662 0.245812 21.2662 0.549916C21.2662 0.85402 21.5194 1.09983 21.8314 1.09983C22.7662 1.09983 23.5269 1.84002 23.5269 2.74958C23.5269 3.65914 22.7662 4.39933 21.8314 4.39933C21.5194 4.39933 21.2662 4.64514 21.2662 4.94924C21.2662 5.25335 21.5194 5.49916 21.8314 5.49916C23.1957 5.49916 24.3374 4.55275 24.6002 3.2995H32.0048V8.24874H1.48448V3.2995H9.39716H11.0927C11.4047 3.2995 11.6579 3.05368 11.6579 2.74958C11.6579 2.44548 11.4047 2.19966 11.0927 2.19966H10.0663C10.3003 1.56066 10.922 1.09983 11.6579 1.09983C12.5928 1.09983 13.3535 1.84002 13.3535 2.74958C13.3535 3.65914 12.5928 4.39933 11.6579 4.39933C11.3459 4.39933 11.0927 4.64514 11.0927 4.94924C11.0927 5.25335 11.3459 5.49916 11.6579 5.49916C13.2162 5.49916 14.4839 4.2657 14.4839 2.74958C14.4839 1.23346 13.2162 0 11.6579 0C10.2936 0 9.15187 0.946405 8.88905 2.19966H0.354095V9.34857V31.3452H33.1352V9.34857V2.19966H24.6002ZM32.0048 30.2454H1.48448V9.34857H32.0048V30.2454Z" fill="white"/>
<path d="M15.049 1.09983C15.9839 1.09983 16.7446 1.84002 16.7446 2.74958C16.7446 3.65914 15.9839 4.39933 15.049 4.39933C14.7371 4.39933 14.4839 4.64514 14.4839 4.94924C14.4839 5.25335 14.7371 5.49916 15.049 5.49916C16.6073 5.49916 17.875 4.2657 17.875 2.74958C17.875 1.23346 16.6073 0 15.049 0C14.7371 0 14.4839 0.245812 14.4839 0.549916C14.4839 0.85402 14.7371 1.09983 15.049 1.09983Z" fill="white"/>
<path d="M18.4402 1.09983C19.375 1.09983 20.1358 1.84002 20.1358 2.74958C20.1358 3.65914 19.375 4.39933 18.4402 4.39933C18.1282 4.39933 17.875 4.64514 17.875 4.94924C17.875 5.25335 18.1282 5.49916 18.4402 5.49916C19.9984 5.49916 21.2662 4.2657 21.2662 2.74958C21.2662 1.23346 19.9984 0 18.4402 0C18.1282 0 17.875 0.245812 17.875 0.549916C17.875 0.85402 18.1282 1.09983 18.4402 1.09983Z" fill="white"/>
<path d="M5.44083 13.7475H17.875C18.187 13.7475 18.4402 13.5017 18.4402 13.1976C18.4402 12.8935 18.187 12.6477 17.875 12.6477H5.44083C5.12885 12.6477 4.87564 12.8935 4.87564 13.1976C4.87564 13.5017 5.12885 13.7475 5.44083 13.7475Z" fill="white"/>
<path d="M28.0485 21.4465H19.5706C19.2586 21.4465 19.0054 21.6923 19.0054 21.9964C19.0054 22.3006 19.2586 22.5464 19.5706 22.5464H28.0485C28.3605 22.5464 28.6137 22.3006 28.6137 21.9964C28.6137 21.6923 28.3605 21.4465 28.0485 21.4465Z" fill="white"/>
<path d="M5.44083 18.1477H11.0927C11.4047 18.1477 11.6579 17.9019 11.6579 17.5978C11.6579 17.2937 11.4047 17.0479 11.0927 17.0479H5.44083C5.12885 17.0479 4.87564 17.2937 4.87564 17.5978C4.87564 17.9019 5.12885 18.1477 5.44083 18.1477Z" fill="white"/>
<path d="M28.0485 25.8464H22.3966C22.0846 25.8464 21.8314 26.0922 21.8314 26.3964C21.8314 26.7005 22.0846 26.9463 22.3966 26.9463H28.0485C28.3605 26.9463 28.6137 26.7005 28.6137 26.3964C28.6137 26.0922 28.3605 25.8464 28.0485 25.8464Z" fill="white"/>
<path d="M16.1794 17.5978C16.1794 17.9019 16.4326 18.1477 16.7446 18.1477H25.2225C25.5345 18.1477 25.7877 17.9019 25.7877 17.5978C25.7877 17.2937 25.5345 17.0479 25.2225 17.0479H16.7446C16.4326 17.0479 16.1794 17.2937 16.1794 17.5978Z" fill="white"/>
<path d="M14.32 17.9879C14.4217 17.8834 14.4839 17.7405 14.4839 17.5975C14.4839 17.454 14.4217 17.311 14.32 17.207C14.1108 17.0036 13.7265 17.0036 13.5174 17.207C13.4157 17.311 13.3535 17.454 13.3535 17.5975C13.3535 17.7405 13.4157 17.8834 13.5174 17.9879C13.6248 18.0919 13.7717 18.1474 13.9187 18.1474C14.0656 18.1474 14.2126 18.0919 14.32 17.9879Z" fill="white"/>
<path d="M7.70154 21.9964C7.70154 22.3006 7.95474 22.5464 8.26673 22.5464H16.7446C17.0566 22.5464 17.3098 22.3006 17.3098 21.9964C17.3098 21.6923 17.0566 21.4465 16.7446 21.4465H8.26673C7.95474 21.4465 7.70154 21.6923 7.70154 21.9964Z" fill="white"/>
<path d="M5.44083 22.5464C5.58778 22.5464 5.73473 22.4859 5.84212 22.3869C5.94385 22.2824 6.00602 22.1394 6.00602 21.9965C6.00602 21.8529 5.94385 21.71 5.84212 21.6115C5.633 21.4026 5.24867 21.4026 5.03955 21.606C4.93781 21.71 4.87564 21.8529 4.87564 21.9965C4.87564 22.1394 4.93781 22.2824 5.03955 22.3869C5.14693 22.4859 5.28823 22.5464 5.44083 22.5464Z" fill="white"/>
<path d="M28.0485 18.1474C28.1954 18.1474 28.3424 18.0919 28.4498 17.9879C28.5571 17.8834 28.6137 17.7405 28.6137 17.5975C28.6137 17.454 28.5571 17.311 28.4498 17.207C28.235 17.0036 27.8563 17.0036 27.6472 17.207C27.5454 17.311 27.4833 17.454 27.4833 17.5975C27.4833 17.7405 27.5454 17.8834 27.6472 17.9879C27.7546 18.0919 27.9015 18.1474 28.0485 18.1474Z" fill="white"/>
<path d="M19.5706 25.8464H5.44083C5.12885 25.8464 4.87564 26.0922 4.87564 26.3964C4.87564 26.7005 5.12885 26.9463 5.44083 26.9463H19.5706C19.8826 26.9463 20.1358 26.7005 20.1358 26.3964C20.1358 26.0922 19.8826 25.8464 19.5706 25.8464Z" fill="white"/>
</svg>
